<svg width="93" height="93" viewBox="0 0 93 93" fill="none" xmlns="http://www.w3.org/2000/svg">
<path fill-rule="evenodd" clip-rule="evenodd" d="M72.6562 23.25C69.5611 23.25 66.8438 20.4571 66.8438 17.4375V5.90259V5.89678L81.375 23.25H72.6562ZM66.8438 46.5465H40.6875C39.0833 46.5465 37.7812 45.2445 37.7812 43.6432C37.7812 42.0389 39.0833 40.7398 40.6875 40.7398H66.8438C68.448 40.7398 69.75 42.0389 69.75 43.6432C69.75 45.2445 68.448 46.5465 66.8438 46.5465ZM66.8438 61.0632H40.6875C39.0833 61.0632 37.7812 59.7612 37.7812 58.1599C37.7812 56.5556 39.0833 55.2565 40.6875 55.2565H66.8438C68.448 55.2565 69.75 56.5556 69.75 58.1599C69.75 59.7612 68.448 61.0632 66.8438 61.0632ZM61.0312 87.1875H17.4375C14.3859 87.1875 11.625 84.3365 11.625 81.375V23.25C11.625 18.9284 15.1823 17.4375 20.3438 17.4375V69.75C20.3438 75.734 25.8191 81.375 31.9688 81.375C31.9688 81.375 63.4783 81.343 66.8699 81.343C66.8699 84.8683 64.5565 87.1875 61.0312 87.1875ZM66.8438 0.0900886C66.4834 0.0900886 31.9688 0 31.9688 0C25.8191 0 20.3438 5.64103 20.3438 11.625L16.987 11.7035C10.8374 11.7035 5.8125 17.266 5.8125 23.25V81.375C5.8125 87.359 11.2879 93 17.4375 93H61.0312C67.1809 93 72.6562 87.359 72.6562 81.375H75.5625C81.7121 81.375 87.1875 75.734 87.1875 69.75V23.3169L66.8438 0.0900886Z" fill="white"/>
</svg>
